<svg xmlns="http://www.w3.org/2000/svg" xmlns:xlink="http://www.w3.org/1999/xlink" width="512" zoomAndPan="magnify" viewBox="0 0 384 383.999986" height="512" preserveAspectRatio="xMidYMid meet" version="1.0"><defs><clipPath id="8566e607c0"><path d="M 41 79 L 311 79 L 311 350 L 41 350 Z M 41 79 " clip-rule="nonzero"/></clipPath><clipPath id="fc66deeb18"><path d="M 39.671875 125.964844 L 264.25 78.484375 L 311.730469 303.058594 L 87.15625 350.542969 Z M 39.671875 125.964844 " clip-rule="nonzero"/></clipPath><clipPath id="d0f219ad37"><path d="M 47.011719 124.414062 L 256.910156 80.035156 C 258.859375 79.625 260.886719 80.003906 262.554688 81.089844 C 264.222656 82.171875 265.390625 83.875 265.800781 85.824219 L 310.179688 295.722656 C 310.589844 297.667969 310.210938 299.699219 309.125 301.367188 C 308.042969 303.03125 306.339844 304.199219 304.390625 304.613281 L 94.492188 348.988281 C 92.546875 349.402344 90.515625 349.023438 88.847656 347.9375 C 87.183594 346.851562 86.015625 345.148438 85.601562 343.203125 L 41.226562 133.304688 C 40.8125 131.355469 41.191406 129.328125 42.277344 127.660156 C 43.363281 125.992188 45.066406 124.824219 47.011719 124.414062 Z M 47.011719 124.414062 " clip-rule="nonzero"/></clipPath><clipPath id="3c8ff372ea"><path d="M 56 58 L 326 58 L 326 328 L 56 328 Z M 56 58 " clip-rule="nonzero"/></clipPath><clipPath id="c125db8116"><path d="M 55.097656 104.296875 L 279.671875 56.816406 L 327.152344 281.390625 L 102.578125 328.871094 Z M 55.097656 104.296875 " clip-rule="nonzero"/></clipPath><clipPath id="78b4c4458a"><path d="M 62.433594 102.746094 L 272.332031 58.367188 C 274.28125 57.957031 276.308594 58.332031 277.976562 59.417969 C 279.644531 60.503906 280.8125 62.207031 281.222656 64.152344 L 325.601562 274.054688 C 326.011719 276 325.632812 278.027344 324.546875 279.695312 C 323.464844 281.363281 321.761719 282.53125 319.816406 282.941406 L 109.914062 327.320312 C 107.96875 327.730469 105.9375 327.351562 104.269531 326.269531 C 102.605469 325.183594 101.4375 323.480469 101.023438 321.535156 L 56.648438 111.632812 C 56.234375 109.6875 56.613281 107.65625 57.699219 105.992188 C 58.785156 104.324219 60.488281 103.15625 62.433594 102.746094 Z M 62.433594 102.746094 " clip-rule="nonzero"/></clipPath><clipPath id="62097ef9ab"><path d="M 73 34 L 343 34 L 343 305 L 73 305 Z M 73 34 " clip-rule="nonzero"/></clipPath><clipPath id="2bf0d3f87a"><path d="M 72.269531 80.9375 L 296.847656 33.457031 L 344.328125 258.03125 L 119.75 305.515625 Z M 72.269531 80.9375 " clip-rule="nonzero"/></clipPath><clipPath id="0a473b38d4"><path d="M 79.609375 79.386719 L 289.507812 35.007812 C 291.453125 34.597656 293.484375 34.976562 295.152344 36.0625 C 296.820312 37.144531 297.984375 38.847656 298.398438 40.796875 L 342.777344 250.695312 C 343.1875 252.640625 342.808594 254.671875 341.722656 256.339844 C 340.636719 258.003906 338.933594 259.171875 336.988281 259.585938 L 127.089844 303.960938 C 125.144531 304.375 123.113281 303.996094 121.445312 302.910156 C 119.78125 301.824219 118.613281 300.121094 118.199219 298.175781 L 73.820312 88.277344 C 73.410156 86.328125 73.789062 84.300781 74.875 82.632812 C 75.960938 80.964844 77.664062 79.796875 79.609375 79.386719 Z M 79.609375 79.386719 " clip-rule="nonzero"/></clipPath></defs><g clip-path="url(#8566e607c0)"><g clip-path="url(#fc66deeb18)"><g clip-path="url(#d0f219ad37)"><path fill="#4c06b7" d="M 39.671875 125.964844 L 264.25 78.484375 L 311.730469 303.058594 L 87.15625 350.542969 Z M 39.671875 125.964844 " fill-opacity="1" fill-rule="nonzero"/></g></g></g><g clip-path="url(#3c8ff372ea)"><g clip-path="url(#c125db8116)"><g clip-path="url(#78b4c4458a)"><path fill="#5518ed" d="M 55.097656 104.296875 L 279.671875 56.816406 L 327.152344 281.390625 L 102.578125 328.871094 Z M 55.097656 104.296875 " fill-opacity="1" fill-rule="nonzero"/></g></g></g><g clip-path="url(#62097ef9ab)"><g clip-path="url(#2bf0d3f87a)"><g clip-path="url(#0a473b38d4)"><path fill="#5c3bff" d="M 72.269531 80.9375 L 296.847656 33.457031 L 344.328125 258.03125 L 119.75 305.515625 Z M 72.269531 80.9375 " fill-opacity="1" fill-rule="nonzero"/></g></g></g></svg>